<svg version="1.1" xmlns="http://www.w3.org/2000/svg" x="0" y="0" width="24" height="24" viewBox="0, 0, 24, 24">
  <g id="Logo">
    <path d="M4.564,21.938 C2.841,22.457 1.512,22.416 0.827,21.668 C-0.938,19.779 1.99,14.132 7.429,8.609 C2.8,14.007 0.453,19.405 2.093,21.315 C2.613,21.917 3.464,22.104 4.564,21.938" fill="#FFFFFF"/>
    <path d="M13.285,23.329 C10.398,23.329 7.803,22.167 5.914,20.298 L8.032,18.201 C9.61,19.654 11.686,20.568 13.99,20.568 C18.849,20.568 22.794,16.519 22.794,11.536 C22.794,9.273 22.005,7.218 20.676,5.639 C22.524,7.508 23.686,10.104 23.686,12.948 C23.686,18.699 19.015,23.329 13.285,23.329" fill="#FFFFFF"/>
    <path d="M2.903,12.854 C2.903,15.72 4.045,18.295 5.893,20.163 L5.893,20.163 C4.585,18.585 3.775,16.529 3.775,14.287 L3.775,14.287 C3.775,9.283 7.72,5.235 12.579,5.235 L12.579,5.235 C14.883,5.235 16.98,6.148 18.537,7.623 L18.537,7.623 L20.655,5.504 C18.766,3.615 16.171,2.452 13.305,2.452 L13.305,2.452 C7.554,2.452 2.903,7.124 2.903,12.854" fill="#FFFFFF"/>
    <path d="M20.801,1.269 C22.628,3.221 19.223,9.387 13.181,15.055 C11.146,16.986 9.049,18.606 7.118,19.789 C8.426,18.855 9.755,17.733 11.083,16.488 C17.354,10.591 20.884,4.176 18.994,2.141 C18.205,1.31 16.627,1.352 14.613,2.079 C17.479,0.605 19.804,0.21 20.801,1.269" fill="#FFFFFF"/>
  </g>
</svg>
