<?xml version="1.0" encoding="utf-8"?>
<!-- Generator: Adobe Illustrator 13.0.0, SVG Export Plug-In . SVG Version: 6.00 Build 14948)  -->
<!DOCTYPE svg PUBLIC "-//W3C//DTD SVG 1.1//EN" "http://www.w3.org/Graphics/SVG/1.1/DTD/svg11.dtd">
<svg version="1.1" xmlns="http://www.w3.org/2000/svg" xmlns:xlink="http://www.w3.org/1999/xlink" x="0px" y="0px" width="181.4px"
	 height="45px" viewBox="78.6 10.8 181.4 45" style="enable-background:new 78.6 10.8 181.4 45;" xml:space="preserve">
<g id="Layer_2_1_">
</g>
<g id="Layer_1">
	<g id="Layer_2" style="display:none;">
		<rect y="58.4" style="display:inline;fill:#1F4AFF;" width="387.8" height="96.6"/>
	</g>
	<g>
		<path style="fill:#0075C9;" d="M213,19.8c1.9-2.1,7.2-2.3,9.2-0.2c-0.2,0.6-0.6,0.9-0.7,1.4c-4-3.2-10-0.2-9.6,5.1
			c0.2,3,2.9,5.4,6.4,5.1c1.9-0.2,3.4-1.5,4.9-2.6c1.5-1.1,2.8-2.2,4.2-3.2c-0.9-0.9-2.1-1.6-3.2-2.3c0.2-0.6,0.6-0.9,0.7-1.4
			c1.4,0.8,2.5,1.9,3.8,2.8c1.2-0.8,2.5-1.7,3.8-2.7c1.2-0.9,2.4-2,3.6-2.8c2.4-1.5,6.6-1.3,8.6,0.6c0.3,0.3,0.6,0.6,1,1
			c2.2,2,2.2,7.5,0,9.6c-0.3,0.3-0.6,0.6-1,1c-1.9,2.1-7.2,2.3-9.2,0.2c0.2-0.6,0.6-0.9,0.7-1.4c3.6,3.1,9.1,0.5,9.6-3.7
			c0.4-3.9-2.4-6.9-6.4-6.6c-1.9,0.2-3.4,1.5-4.9,2.6c-1.5,1.1-3,2.3-4.2,3.2c1,0.8,2,1.5,3.2,2.3c-0.2,0.6-0.6,0.9-0.7,1.4
			c-1.4-0.8-2.5-1.8-3.8-2.8c-1.2,0.8-2.5,1.7-3.8,2.7c-1.2,0.9-2.4,2-3.6,2.8c-2.4,1.5-6.6,1.3-8.6-0.6c-0.3-0.3-0.6-0.6-1-1
			c-2.2-2-2.2-7.5,0-9.6C212.3,20.4,212.7,20.1,213,19.8z"/>
		<path style="fill:#00A8E1;" d="M94,37.7c-0.5,0.3-1.2-0.1-1.5-0.7c-2.7-6-5.1-11.8-7.6-17.3c-0.3-0.6-0.1-1.2,0.4-1.5
			c0.1-0.1,0.3-0.1,0.4-0.2c0.5-0.2,1.1,0,1.5,0.6c2.5,5.5,5.1,11.3,7.7,17.2c0.3,0.6,0.1,1.3-0.4,1.6C94.2,37.5,94.2,37.5,94,37.7z
			"/>
		<path style="fill:#0075C9;" d="M91.3,39.6c-0.1,0.6-0.4,1.1-0.7,0.9c-2.8-1.2-5.3-2.8-7.9-4.5c-0.3-0.2-0.4-0.8-0.3-1.3
			c0-0.1,0.1-0.3,0.1-0.4c0.1-0.5,0.4-0.8,0.7-0.7c2.5,1.6,5.2,2.9,7.9,4.1c0.3,0.1,0.4,0.7,0.3,1.5C91.4,39.2,91.3,39.4,91.3,39.6z
			"/>
		<path style="fill:#0075C9;" d="M100.9,30c-0.5,0.3-1.2,0.1-1.5-0.5c-2.7-5.6-5.3-11.3-7.8-16.8c-0.3-0.6-0.1-1.3,0.4-1.6
			c0.1-0.1,0.3-0.2,0.4-0.3c0.5-0.3,1.1-0.2,1.4,0.5c2.5,5.5,5.2,11.3,7.8,16.8c0.3,0.6,0.1,1.3-0.4,1.7
			C101.1,29.8,101,29.8,100.9,30z"/>
		<path style="fill:#22D3C5;" d="M97.4,33.7c-0.5,0.3-1.2,0-1.5-0.6c-2.7-5.8-5.2-11.7-7.7-17c-0.3-0.6-0.1-1.3,0.4-1.5
			c0.1-0.1,0.3-0.2,0.4-0.3c0.5-0.3,1.1-0.1,1.5,0.5c2.5,5.5,5.1,11.3,7.8,16.9c0.3,0.6,0.1,1.3-0.4,1.7
			C97.7,33.5,97.6,33.6,97.4,33.7z"/>
		<path style="fill:#22D3C5;" d="M89.4,43.1c-0.1,0.6-0.4,1.1-0.7,0.8c-2.8-1.5-5.3-3.3-7.6-5.3c-0.2-0.2-0.4-0.8-0.3-1.3
			c0-0.1,0-0.3,0.1-0.4c0.1-0.5,0.4-0.7,0.6-0.5c2.4,1.9,4.9,3.6,7.7,4.9c0.3,0.1,0.4,0.8,0.3,1.5C89.5,42.9,89.4,43,89.4,43.1z"/>
		<path style="fill:#0075C9;" d="M98.6,51.8c0.5-0.3,0.8-0.9,0.6-1.2c-1.5-2.8-3.2-5.8-4.5-8.7c-0.2-0.3-0.7-0.3-1.2-0.1
			c-0.1,0.1-0.3,0.1-0.4,0.2c-0.5,0.3-0.8,0.7-0.6,1.1c1.5,3.1,2.9,6.1,4.5,8.9c0.2,0.3,0.7,0.3,1.2,0
			C98.3,51.9,98.5,51.9,98.6,51.8z"/>
		<path style="fill:#22D3C5;" d="M95.5,55.2c0.5-0.3,0.8-0.8,0.6-1.1c-1.5-2.9-3.1-6-4.5-9.2c-0.2-0.3-0.7-0.4-1.2-0.2
			c-0.1,0.1-0.3,0.1-0.4,0.2c-0.5,0.2-0.8,0.6-0.6,0.9c1.5,3.2,2.9,6.3,4.5,9.3c0.2,0.3,0.7,0.4,1.2,0.1
			C95.2,55.3,95.4,55.3,95.5,55.2z"/>
		<path style="fill:#0075C9;" d="M120.2,29.4c0.1-0.6-0.3-0.9-0.8-0.8c-4.9,1.5-10.4,1.9-16,1.3c-0.6,0-1.1,0.5-1.2,1.1
			c0,0.2,0,0.4-0.1,0.6c-0.1,0.7,0.4,1.3,0.9,1.3c5.6,0.4,11-0.1,16-1.7c0.5-0.2,1.1-0.8,1.1-1.5C120.2,29.8,120.2,29.7,120.2,29.4z
			"/>
		<path style="fill:#00A8E1;" d="M114,40.1c0.1-0.7-0.3-1.1-0.9-0.9c-5.3,1.2-11,1.1-16.6-0.2c-0.6-0.1-1.1,0.3-1.2,0.9
			c0,0.2,0,0.4-0.1,0.5c-0.1,0.7,0.3,1.3,0.9,1.5c5.6,1.3,11.3,1.5,16.8,0.2c0.6-0.1,1.1-0.8,1.1-1.5C114,40.4,114,40.2,114,40.1z"
			/>
		<path style="fill:#22D3C5;" d="M117.1,34.9c0.1-0.6-0.3-1.1-0.9-0.9c-5.2,1.3-10.8,1.5-16.4,0.8c-0.6-0.1-1.1,0.4-1.2,1.1
			c0,0.2,0,0.4-0.1,0.5c-0.1,0.7,0.3,1.3,0.9,1.5c5.6,0.8,11.3,0.6,16.4-0.9c0.5-0.2,1.1-0.8,1.1-1.5C117,35.3,117,35.1,117.1,34.9z
			"/>
		<text transform="matrix(1.25 0 0 1 123.7417 51.6104)" style="fill:#22D3C5; font-family:'ArialMT'; font-size:12.166;">Material Design Lite</text>
		<g>
			<path style="fill:#231F20;" d="M144.5,15.3c2.4,2.3,3.6,5.3,3.6,9.3c0,4-1.2,7.2-3.6,9.6c-2.3,2.3-6.1,3.5-10.9,3.5h-8.6V12.1
				h8.9C138.5,12.1,142.1,13.2,144.5,15.3z M140.4,30.6c1.5-1.3,2.1-3.2,2.1-5.8s-0.7-4.5-2.1-5.9c-1.5-1.3-3.6-2.1-6.5-2.1h-3.3
				v15.8h3.7C136.9,32.6,139,31.9,140.4,30.6z"/>
			<path style="fill:#231F20;" d="M168.6,37.8h-5.1v-2.4c-1.5,1.9-3.2,2.7-5.3,2.7c-2.1,0-3.9-0.6-5.3-1.9c-1.5-1.2-2.1-2.8-2.1-4.9
				c0-2,0.7-3.6,2.3-4.5c1.5-1.1,3.5-1.5,6.1-1.5h4V25c0-2.1-1.1-3.2-3.3-3.2c-0.9,0-1.9,0.2-3.1,0.6c-1.1,0.4-1.9,0.8-2.8,1.5
				l-2.4-3.6c2.7-1.9,5.6-2.8,8.9-2.8c2.4,0,4.3,0.6,5.9,1.9c1.5,1.2,2.3,3.2,2.3,5.7v12.8L168.6,37.8L168.6,37.8z M163.1,30.2v-0.8
				h-3.5c-2.3,0-3.3,0.6-3.3,1.9c0,0.7,0.3,1.2,0.8,1.6c0.5,0.4,1.3,0.5,2.3,0.5c1.1,0,1.9-0.3,2.5-0.9
				C162.8,31.9,163.1,31.1,163.1,30.2z"/>
			<path style="fill:#231F20;" d="M183.2,22.8c-1.6,0-2.9,0.6-3.7,1.7c-0.8,1.1-1.3,2.8-1.3,4.7v8.6h-5.5V18h5.5v2.5
				c0.7-0.8,1.7-1.5,2.8-2c1.1-0.6,2.3-0.9,3.5-0.9v5.2H183.2L183.2,22.8z"/>
			<path style="fill:#231F20;" d="M193.1,22v8.7c0,0.7,0.2,1.3,0.6,1.9c0.4,0.4,0.9,0.6,1.5,0.6c1.1,0,1.9-0.5,2.7-1.5l2,3.9
				c-1.7,1.5-3.6,2.3-5.3,2.3c-1.9,0-3.5-0.6-4.9-1.9c-1.3-1.2-1.9-2.9-1.9-5.1v-19h5.5v5.5h5.9l-3.1,4.4H193.1L193.1,22z"/>
		</g>
		<path style="fill:#22D3C5;stroke:#22D3C5;" d="M106,24c-0.2,0-0.5-0.1-0.5-0.4c-0.3-2-0.7-4-1.1-6c0-0.2,0.1-0.4,0.3-0.4
			c0,0,0.1,0,0.2,0c0.2,0,0.4,0.1,0.5,0.3c0.3,1.9,0.6,4,1.1,6c0,0.2-0.1,0.4-0.3,0.4C106.1,24,106.1,24,106,24z"/>
		<path style="fill:#22D3C5;stroke:#22D3C5;" d="M108.3,24.1c0.1,0.2,0.3,0.4,0.5,0.3c1.9-0.4,4-0.9,5.9-1.5c0.2,0,0.3-0.2,0.3-0.5
			c0,0,0-0.1,0-0.2c-0.1-0.2-0.3-0.3-0.5-0.3c-1.9,0.4-4,0.9-5.9,1.5c-0.2,0-0.3,0.2-0.3,0.5C108.3,24,108.3,24,108.3,24.1z"/>
	</g>
</g>
</svg>
