<?xml version="1.0" encoding="utf-8"?>
<!-- Generator: Adobe Illustrator 13.0.0, SVG Export Plug-In . SVG Version: 6.00 Build 14948)  -->
<!DOCTYPE svg PUBLIC "-//W3C//DTD SVG 1.1//EN" "http://www.w3.org/Graphics/SVG/1.1/DTD/svg11.dtd" [
	<!ENTITY st0 "fill:#ffc107;">
]>
<svg version="1.1" id="Layer_1" xmlns="http://www.w3.org/2000/svg" xmlns:xlink="http://www.w3.org/1999/xlink" x="0px" y="0px"
	 width="36px" height="36px" viewBox="49.3 47.3 36 36" style="enable-background:new 49.3 47.3 36 36;" xml:space="preserve">
<g>
	<path style="&st0;" d="M68.2,67.9l-1.7-1.3c-0.5-0.4-1.2-1-1.2-2c0-1,0.7-1.7,1.3-2.3c2-1.5,3.9-3.2,3.9-6.6c0-3.5-2.2-5.4-3.3-6.3
		h2.9l3-1.9H64c-2.5,0-6.1,0.6-8.8,2.8c-2,1.7-3,4.1-3,6.2c0,3.6,2.8,7.3,7.7,7.3c0.5,0,1,0,1.5-0.1c-0.2,0.6-0.5,1-0.5,1.8
		c0,1.4,0.7,2.3,1.4,3.2c-2.1,0.1-6,0.4-8.9,2.1c-2.7,1.6-3.6,4-3.6,5.7c0,3.5,3.3,6.7,10,6.7c8,0,12.2-4.4,12.2-8.8
		C72.1,71.2,70.2,69.6,68.2,67.9z M62.1,62.5c-4,0-5.8-5.2-5.8-8.3c0-1.2,0.2-2.5,1-3.4c0.7-0.9,2-1.5,3.3-1.5
		c3.9,0,5.9,5.2,5.9,8.6c0,0.8-0.1,2.3-1.2,3.4C64.5,62,63.3,62.5,62.1,62.5z M62.1,81.3c-5,0-8.2-2.4-8.2-5.7s3-4.4,4-4.8
		c2-0.7,4.5-0.7,4.9-0.7c0.5,0,0.7,0,1.1,0c3.5,2.5,5.1,3.8,5.1,6.2C69,79.1,66.6,81.3,62.1,81.3z"/>
	<polygon style="&st0;" points="79.9,62.4 79.9,57.8 77.6,57.8 77.6,62.4 73,62.4 73,64.8 77.6,64.8 77.6,69.5 79.9,69.5 79.9,64.8 
		84.6,64.8 84.6,62.4 	"/>
</g>
</svg>
