<?xml version="1.0" encoding="utf-8"?>
<!-- Generator: Adobe Illustrator 13.0.0, SVG Export Plug-In . SVG Version: 6.00 Build 14948)  -->
<!DOCTYPE svg PUBLIC "-//W3C//DTD SVG 1.1//EN" "http://www.w3.org/Graphics/SVG/1.1/DTD/svg11.dtd" [
	<!ENTITY st0 "fill:none;stroke:#ffc107;stroke-width:2;">
]>
<svg version="1.1" id="Layer_1" xmlns="http://www.w3.org/2000/svg" xmlns:xlink="http://www.w3.org/1999/xlink" x="0px" y="0px"
	 width="36px" height="36px" viewBox="198 232.5 36 36" style="enable-background:new 198 232.5 36 36;" xml:space="preserve">
<path style="&st0;" d="M215.9,233.3c-9.4,0-16.9,7.7-16.9,17.2c0,9.4,7.7,17,17,17s16.9-7.7,16.9-17.2c0-9.4-7.6-16.9-16.9-17H215.9
	z M216,233.3v34.2 M232.9,250.4H199 M202.8,239.9c7.9,5.6,18.4,5.6,26.3,0 M229.1,260.9c-7.9-5.6-18.4-5.6-26.3,0 M214.7,233.8
	c-9.2,7.8-10.3,21.6-2.6,30.9c0.8,0.9,1.7,1.8,2.6,2.6 M217.3,267.2c9.2-7.8,10.3-21.6,2.6-30.9c-0.8-0.9-1.7-1.8-2.6-2.6"/>
</svg>
