<?xml version="1.0" encoding="utf-8"?>
<!-- Generator: Adobe Illustrator 13.0.0, SVG Export Plug-In . SVG Version: 6.00 Build 14948)  -->
<!DOCTYPE svg PUBLIC "-//W3C//DTD SVG 1.1//EN" "http://www.w3.org/Graphics/SVG/1.1/DTD/svg11.dtd" [
	<!ENTITY st0 "font-family:'Handwriting-Dakota';">
	<!ENTITY st1 "font-family:'Montserrat-Bold';">
	<!ENTITY st2 "fill:none;stroke:#FFFFFF;">
	<!ENTITY st3 "display:inline;fill:#1F4AFF;">
	<!ENTITY st4 "fill:#0042DF;stroke:#1F6AFF;stroke-width:0.25;">
	<!ENTITY st5 "fill:#0039BF;stroke:#1F6AFF;stroke-width:0.25;">
	<!ENTITY st6 "fill:#F7931E;">
	<!ENTITY st7 "fill:#002F9F;stroke:#1F6AFF;stroke-width:0.25;">
	<!ENTITY st8 "fill:#205AE3;stroke:#1F6AFF;stroke-width:0.25;">
	<!ENTITY st9 "font-size:29.5049;">
	<!ENTITY st10 "letter-spacing:-0.7;">
	<!ENTITY st11 "display:none;">
	<!ENTITY st12 "font-size:30.1279;">
]>
<svg version="1.1" xmlns="http://www.w3.org/2000/svg" xmlns:xlink="http://www.w3.org/1999/xlink" x="0px" y="0px" width="205px"
	 height="45px" viewBox="0 0 205 45" style="enable-background:new 0 0 205 45;" xml:space="preserve">
<g id="Layer_2" style="&st11;">
	<rect x="-38.2" y="-15.2" style="&st3;" width="309.8" height="77.2"/>
</g>
<g id="Layer_1">
	<g>
		<g>
			<path style="&st8;" d="M13.5,26.7c-0.4,0.4-1.1,0.4-1.5-0.2C8.1,21.4,4.4,16.1,0.8,11.4c-0.4-0.5-0.4-1.2,0-1.5
				C0.9,9.8,1,9.7,1.1,9.6c0.4-0.3,1-0.3,1.4,0.2c3.7,4.6,7.4,9.8,11.3,14.7c0.4,0.5,0.4,1.3,0,1.8C13.7,26.5,13.6,26.6,13.5,26.7z"
				/>
			<path style="&st7;" d="M11.6,29.7c0.1,0.7-0.1,1.2-0.4,1.2c-2.8-0.2-5.4-0.8-7.9-1.8c-0.3-0.1-0.5-0.7-0.6-1.4c0-0.2,0-0.3,0-0.5
				c-0.1-0.6,0.1-1.1,0.4-1c2.5,0.9,5.2,1.4,7.9,1.6c0.3,0,0.6,0.6,0.6,1.3C11.5,29.3,11.5,29.5,11.6,29.7z"/>
			<path style="&st7;" d="M17.9,16.9c-0.4,0.5-1.1,0.5-1.5,0C12.5,12.2,8.8,7.3,5,3.1C4.6,2.6,4.6,1.9,5,1.5
				c0.1-0.1,0.2-0.2,0.3-0.4c0.4-0.5,1-0.5,1.4,0c3.7,4.2,7.5,9.1,11.4,13.6c0.4,0.5,0.4,1.3,0,1.8C18.1,16.6,18,16.8,17.9,16.9z"/>
			<path style="&st5;" d="M15.6,21.6c-0.4,0.5-1.1,0.4-1.5-0.1c-3.9-4.9-7.6-9.9-11.3-14.3C2.4,6.7,2.4,6,2.8,5.6
				C2.9,5.5,3,5.4,3.1,5.3c0.4-0.4,1-0.4,1.4,0.1c3.7,4.4,7.5,9.3,11.4,14.1c0.4,0.5,0.4,1.3,0,1.8C15.8,21.4,15.7,21.5,15.6,21.6z"
				/>
			<path style="&st4;" d="M10.8,34.2c0.1,0.7-0.1,1.2-0.4,1.2C7.6,35,5,34.2,2.5,32.9c-0.3-0.1-0.5-0.8-0.6-1.4c0-0.2,0-0.3,0-0.5
				c-0.1-0.6,0.1-1,0.4-0.9c2.4,1.2,5.1,1.9,7.8,2.2c0.3,0,0.6,0.6,0.6,1.3C10.8,33.8,10.8,34,10.8,34.2z"/>
			<path style="&st7;" d="M21.4,38.7c0.4-0.6,0.5-1.2,0.3-1.4c-2.2-2-4.4-4.2-6.5-6.5c-0.2-0.3-0.7-0.1-1.1,0.4
				c-0.1,0.1-0.2,0.3-0.3,0.4c-0.4,0.5-0.5,1.1-0.3,1.3c2.1,2.5,4.3,4.8,6.5,6.9c0.2,0.2,0.7,0,1.1-0.6C21.2,39,21.3,38.8,21.4,38.7
				z"/>
			<path style="&st8;" d="M19.5,43.5c0.4-0.5,0.5-1.2,0.3-1.4c-2.2-2.1-4.4-4.5-6.5-7c-0.2-0.3-0.7-0.1-1.1,0.3
				c-0.1,0.1-0.2,0.2-0.3,0.4c-0.4,0.4-0.5,1-0.3,1.3c2.1,2.6,4.3,5.2,6.5,7.4c0.2,0.2,0.8,0,1.2-0.5C19.3,43.8,19.4,43.6,19.5,43.5
				z"/>
			<path style="&st5;" d="M37.1,11.5c-0.1-0.5-0.6-0.8-1.1-0.6c-5,2.1-10.3,4-15.6,5.3c-0.6,0.1-1,0.8-0.8,1.5
				c0,0.2,0.1,0.4,0.1,0.6c0.1,0.7,0.7,1.1,1.2,1c5.4-1.4,10.7-3.5,15.6-5.8c0.5-0.3,0.9-0.9,0.8-1.5C37.2,11.8,37.1,11.6,37.1,11.5
				z"/>
			<path style="&st8;" d="M33.3,22.2c-0.1-0.6-0.6-0.8-1.2-0.5c-5.1,2.7-10.6,4.6-16,5.4c-0.6,0.1-1,0.7-0.9,1.4
				c0,0.2,0.1,0.4,0.1,0.6c0.1,0.7,0.7,1.2,1.2,1.1c5.5-0.8,11-2.9,16.1-5.8c0.5-0.3,0.9-1,0.8-1.6C33.3,22.6,33.3,22.4,33.3,22.2z"
				/>
			<path style="&st4;" d="M35.1,17c-0.1-0.6-0.6-0.8-1.2-0.5c-5,2.5-10.4,4.4-15.8,5.5c-0.6,0.1-1,0.8-0.9,1.5
				c0,0.2,0.1,0.4,0.1,0.6c0.1,0.7,0.7,1.2,1.2,1c5.5-1.1,10.9-3.3,15.8-6c0.5-0.3,0.9-1,0.8-1.6C35.2,17.3,35.2,17.2,35.1,17z"/>
		</g>
	</g>
	<text transform="matrix(1.0035 0 0 1 121.3213 34.7207)" style="&st1; &st9;">DART</text>
	<text transform="matrix(1.0035 0 0 1 36.9238 34.0371)" style="&st2; &st1; &st9;">MDL</text>
	<text transform="matrix(1.2582 -0.623 0.4437 0.8962 104.418 37.1704)" style="&st6; &st0; &st12; &st10;">/</text>
</g>
</svg>
