<svg version="1.1" xmlns="http://www.w3.org/2000/svg" x="0" y="0" width="64" height="64" viewBox="0, 0, 64, 64">
  <g id="Logo">
    <path d="M12.172,58.502 C7.576,59.886 4.032,59.775 2.205,57.782 C-2.501,52.744 5.306,37.684 19.812,22.956 C7.465,37.352 1.209,51.747 5.583,56.841 C6.967,58.447 9.237,58.945 12.172,58.502" fill="#FFFFFF"/>
    <path d="M35.426,62.211 C27.729,62.211 20.809,59.111 15.77,54.128 L21.417,48.536 C25.626,52.411 31.162,54.847 37.308,54.847 C50.264,54.847 60.784,44.051 60.784,30.763 C60.784,24.728 58.679,19.247 55.136,15.038 C60.064,20.022 63.164,26.943 63.164,34.528 C63.164,49.864 50.706,62.211 35.426,62.211" fill="#FFFFFF"/>
    <path d="M7.742,34.278 C7.742,41.919 10.787,48.786 15.714,53.767 L15.714,53.767 C12.227,49.56 10.067,44.078 10.067,38.1 L10.067,38.1 C10.067,24.755 20.587,13.959 33.543,13.959 L33.543,13.959 C39.689,13.959 45.28,16.395 49.433,20.327 L49.433,20.327 L55.08,14.679 C50.042,9.641 43.121,6.54 35.481,6.54 L35.481,6.54 C20.144,6.54 7.742,18.998 7.742,34.278" fill="#FFFFFF"/>
    <path d="M55.468,3.383 C60.34,8.588 51.261,25.032 35.149,40.148 C29.723,45.296 24.131,49.616 18.982,52.771 C22.469,50.28 26.013,47.289 29.556,43.967 C46.277,28.243 55.69,11.135 50.651,5.709 C48.548,3.494 44.34,3.605 38.969,5.543 C46.61,1.612 52.811,0.56 55.468,3.383" fill="#FFFFFF"/>
  </g>
</svg>
