<svg version="1.1" xmlns="http://www.w3.org/2000/svg" x="0" y="0" width="48" height="48" viewBox="0, 0, 48, 48">
  <g id="Logo">
    <path d="M9.129,43.877 C5.682,44.915 3.024,44.831 1.654,43.336 C-1.876,39.558 3.979,28.263 14.859,17.217 C5.599,28.014 0.907,38.811 4.187,42.631 C5.225,43.835 6.928,44.208 9.129,43.877" fill="#FFFFFF"/>
    <path d="M26.569,46.658 C20.797,46.658 15.606,44.333 11.828,40.596 L16.063,36.402 C19.219,39.308 23.371,41.135 27.981,41.135 C37.698,41.135 45.588,33.038 45.588,23.072 C45.588,18.546 44.009,14.435 41.352,11.279 C45.048,15.016 47.373,20.207 47.373,25.896 C47.373,37.398 38.03,46.658 26.569,46.658" fill="#FFFFFF"/>
    <path d="M5.807,25.709 C5.807,31.44 8.09,36.589 11.786,40.325 L11.786,40.325 C9.17,37.17 7.55,33.058 7.55,28.575 L7.55,28.575 C7.55,18.566 15.44,10.469 25.157,10.469 L25.157,10.469 C29.766,10.469 33.96,12.296 37.075,15.245 L37.075,15.245 L41.31,11.009 C37.531,7.231 32.341,4.905 26.611,4.905 L26.611,4.905 C15.108,4.905 5.807,14.248 5.807,25.709" fill="#FFFFFF"/>
    <path d="M41.601,2.538 C45.255,6.441 38.446,18.774 26.362,30.111 C22.292,33.972 18.098,37.212 14.236,39.578 C16.852,37.71 19.51,35.467 22.167,32.976 C34.708,21.182 41.767,8.351 37.989,4.282 C36.411,2.621 33.255,2.704 29.227,4.157 C34.957,1.209 39.608,0.42 41.601,2.538" fill="#FFFFFF"/>
  </g>
</svg>
